<svg xmlns="http://www.w3.org/2000/svg" viewBox="0 0 245.57 38.42">
  <title>digest-logo</title>
  <g>
    <g class="digest-logo__digest">
      <path d="M116.74,29.82l-0.1-.07c-1.56,2.09-4.92,2.46-8.49,2.46-9.39,0-10.34-3.59-10.34-8.9s0.9-8.93,10.34-8.93c2.91,0,7.33.23,8.49,2.36h0.1V7.11h4V32h-4V29.82Zm0-6.51c0-4.78-.85-6.81-7.33-6.81-6.08,0-7.48.7-7.48,6.81s1.81,6.77,7.48,6.77C115.58,30.09,116.74,28.69,116.74,23.31Z" transform="translate(-2.6 -1.33)" fill="#43b0f2"/>
      <path d="M130.55,10h-4V7.11h4V10Zm0,22h-4V14.58h4V32Z" transform="translate(-2.6 -1.33)" fill="#43b0f2"/>
      <path d="M158.47,34.07c0,4.65-5.22,5.68-11.6,5.68-6.13,0-10.95-.63-10.54-5.68h4c0,3.35,2.41,3.55,6.58,3.55,4.72,0,7.58-.33,7.63-3.75v-4h-0.1c-1.1,2.13-5.37,2.36-8.49,2.36-8.54,0-10.4-2.92-10.4-8.9,0-5.81,1.36-8.93,10.4-8.93,3.67,0,6.93.33,8.49,2.42l0.1,0V14.58h4V34.07Zm-4-10.76c0-4.85-.5-6.81-7.63-6.81-7.33,0-7.23,2.22-7.23,6.81,0,4.18-.45,6.77,7.23,6.77S154.5,27.2,154.5,23.31Z" transform="translate(-2.6 -1.33)" fill="#43b0f2"/>
      <path d="M186.44,26.73v0.63c0,4.62-5.37,4.85-11.25,4.85-10.29,0-11.85-2.26-11.85-8.9,0-7.24,2.41-8.93,11.85-8.93,8.54,0,11.25,1.29,11.25,7.74v1.76h-19c0,5.51.6,6.21,7.73,6.21,5.42,0,7.18-.23,7.18-2.69V26.73h4.07Zm-4.12-5c-0.2-4.95-1.1-5.25-7.13-5.25-7.18,0-7.43,1.23-7.73,5.25h14.86Z" transform="translate(-2.6 -1.33)" fill="#43b0f2"/>
      <path d="M212.41,19.13h-4.12V18.47c0-1.76-2-1.76-6.18-1.76-5,0-7.38,0-7.38,2.13,0,3.12,1.31,2.89,5.42,3,6.78,0.27,13-.43,13,5.25,0,4.91-5.12,5.11-11,5.11-5.72,0-11.7-.2-11.7-4.08V26.5h4.12v1.36c0,1.66,1.56,2,7.58,2,2.71,0,6.88.4,6.88-2.69,0-3.25-2.06-2.66-6.88-2.86-5.72-.27-11.5.13-11.5-4.81s4.37-5.15,11.5-5.15c4.62,0,10.29.13,10.29,4.08v0.66Z" transform="translate(-2.6 -1.33)" fill="#43b0f2"/>
      <path d="M231.44,16.71H221.25V27.76c0,1.89.8,2.32,3.72,2.32,3.72,0,3.72-1.29,3.72-3V25.84h3.77v1.29c0,3.45-2.16,5.08-7.58,5.08-6.18,0-7.58-1.16-7.58-5.25V16.71h-3.52V14.58h3.52V10.37h4v4.22h10.19v2.13Z" transform="translate(-2.6 -1.33)" fill="#43b0f2"/>
    </g>
    <g class="digest-logo__jolt">
      <path d="M8.51,24.47c0.08,2.52.82,4.13,3.3,4.13,2.33,0,2.88-1.35,3.07-2A17.81,17.81,0,0,0,15.11,23V8.7h6.1V23c0,3.58-.82,6.42-4.35,8.22a11.89,11.89,0,0,1-5.44,1c-3,0-5.56-.52-7.35-2.84A8,8,0,0,1,2.6,24.47H8.51Z" transform="translate(-2.6 -1.33)" fill="#969696"/>
      <path d="M38.2,8.22c3,0,7.11.58,9.87,3.16a12,12,0,0,1,3.58,8.77,12.79,12.79,0,0,1-3.54,9.12c-3.11,2.9-7.66,3.32-10,3.32-3.69,0-7.38-1-9.95-3.19-3.07-2.71-3.46-6.58-3.46-8.7C24.71,14.51,28.09,8.22,38.2,8.22ZM33.11,27c0.85,1,2.29,1.87,5.09,1.87,2.45,0,4.12-.71,5.25-2.16,0.93-1.16,1.9-3,1.9-6.67a11.31,11.31,0,0,0-.7-4.16,6.43,6.43,0,0,0-6.41-4.13,7,7,0,0,0-5.17,2C31.47,15.38,31,17.89,31,20.53A9.4,9.4,0,0,0,33.11,27Z" transform="translate(-2.6 -1.33)" fill="#969696"/>
      <path d="M55.21,8.74h6.14V28h12v4H55.21V8.74Z" transform="translate(-2.6 -1.33)" fill="#969696"/>
      <path d="M78.57,12.57H70.21V8.7H93v3.87H84.63V32H78.57V12.57Z" transform="translate(-2.6 -1.33)" fill="#969696"/>
    </g>
    <rect x="237.57" width="3" height="13" fill="#fc0"/>
    <rect x="240.17" y="1.33" width="3" height="13" transform="translate(246.9 -235.17) rotate(90)" fill="#fc0"/>
  </g>
</svg>
