<svg width="300px" height="51px" xmlns="http://www.w3.org/2000/svg" viewBox="0 0 300 51"><title>Login</title><path d="M2.28,0.43V7.49h7.81V0.43h2.28V16.87H10.09V9.45H2.28v7.42H0V0.43H2.28Z" fill="#969696"/><path d="M23.84,0.43h2.44l6.65,16.44H30.44l-1.78-4.28H21l-1.78,4.28H16.92ZM21.77,10.75H28L25,2.69Z" fill="#969696"/><path d="M37.39,0.43h5.87A7.3,7.3,0,0,1,47,1.21a3.86,3.86,0,0,1,1.82,3.35,4,4,0,0,1-3.1,4c1.57,0.41,2.28,1.12,2.5,3.16a21.89,21.89,0,0,0,1,5.17H46.86a28.47,28.47,0,0,1-.75-4.35c-0.27-2.39-.84-3.07-3.6-3.07H39.64v7.42H37.39V0.43ZM39.6,7.51h3.6a5.31,5.31,0,0,0,2.16-.36A2.34,2.34,0,0,0,46.47,5c0-2.66-2.37-2.66-3.28-2.66H39.6V7.51Z" fill="#969696"/><path d="M60.89,16.87h-2.5L52.53,0.43h2.53l4.67,14.05L64.64,0.43h2.3Z" fill="#969696"/><path d="M75.55,0.43H78l6.65,16.44H82.15l-1.78-4.28H72.75L71,16.87H68.63ZM73.48,10.75h6.22l-3-8.06Z" fill="#969696"/><path d="M89.1,0.43H95a7.3,7.3,0,0,1,3.78.77,3.86,3.86,0,0,1,1.82,3.35,4,4,0,0,1-3.1,4C99,8.95,99.75,9.66,100,11.7a21.89,21.89,0,0,0,1,5.17H98.57a28.47,28.47,0,0,1-.75-4.35c-0.27-2.39-.84-3.07-3.6-3.07H91.35v7.42H89.1V0.43Zm2.21,7.08h3.6a5.31,5.31,0,0,0,2.16-.36A2.34,2.34,0,0,0,98.18,5c0-2.66-2.37-2.66-3.28-2.66h-3.6V7.51Z" fill="#969696"/><path d="M106.61,0.43h4.76c2.21,0,4.81,0,6.63,2.14a9.46,9.46,0,0,1,2,6.22c0,3.55-1.48,5.74-2.73,6.74-1.62,1.34-3.64,1.34-6.06,1.34h-4.62V0.43ZM108.88,15h2.23c1.57,0,3.21-.09,4.3-0.91,2.1-1.57,2.16-4.26,2.16-5.21,0-.61,0-3.42-1.59-5.12-1-1.16-2.37-1.43-4.37-1.43h-2.73V15Z" fill="#969696"/><path d="M134.82,12.41a3.56,3.56,0,0,0,.36,1.8,2.44,2.44,0,0,0,2.12,1A2.6,2.6,0,0,0,139.58,14a4.78,4.78,0,0,0,.39-2.21V0.43h2.28v12c0,3-2.39,4.67-5.1,4.67a4.94,4.94,0,0,1-3.92-1.71,5,5,0,0,1-.82-3h2.41Z" fill="#969696"/><path d="M149.87,2.21A7.33,7.33,0,0,1,155.36,0c4.55,0,7.42,2.91,7.42,8.49,0,4.37-1.75,8.77-7.61,8.77-5.6,0-7.42-4-7.42-8.49C147.75,6.9,148.07,4.14,149.87,2.21Zm1.73,11.61a4.49,4.49,0,0,0,3.64,1.5,4.54,4.54,0,0,0,3.64-1.5c1.34-1.64,1.48-4.24,1.48-5.35,0-3.73-1.23-6.56-5-6.56-4.17,0-5.24,3.35-5.24,6.72A8.29,8.29,0,0,0,151.6,13.82Z" fill="#969696"/><path d="M170.8,0.43V10.61a4.61,4.61,0,0,0,.73,3,4.51,4.51,0,0,0,3.76,1.62c4.44,0,4.44-3.48,4.44-4.67V0.43h2.21V10.57a6.68,6.68,0,0,1-1.34,4.37,6.74,6.74,0,0,1-5.31,2.28c-1.55,0-4.28-.43-5.81-2.62-0.5-.73-1-1.69-1-4.14v-10h2.28Z" fill="#969696"/><path d="M188.35,0.43h5.87a7.3,7.3,0,0,1,3.78.77,3.86,3.86,0,0,1,1.82,3.35,4.08,4.08,0,0,1-1.16,2.91,4.08,4.08,0,0,1-1.94,1.07c1.57,0.41,2.28,1.12,2.5,3.16a21.91,21.91,0,0,0,1,5.17h-2.44a28.29,28.29,0,0,1-.75-4.35c-0.27-2.39-.84-3.07-3.6-3.07H190.6v7.42h-2.25V0.43Zm2.21,7.08h3.6a5.31,5.31,0,0,0,2.16-.36A2.33,2.33,0,0,0,197.44,5c0-2.66-2.37-2.66-3.28-2.66h-3.6V7.51Z" fill="#969696"/><path d="M206,0.43h3.16L217.27,14V0.43h2.1V16.87h-2.91l-8.36-14v14H206V0.43Z" fill="#969696"/><path d="M231,0.43h2.44l6.65,16.44h-2.48l-1.78-4.28h-7.63l-1.78,4.28h-2.35ZM228.9,10.75h6.22l-3-8.06Z" fill="#969696"/><path d="M244.68,0.43h2.25V14.85h7.65v2h-9.91V0.43Z" fill="#969696"/><path d="M269.57,2.21A7.33,7.33,0,0,1,275.06,0c4.55,0,7.42,2.91,7.42,8.49,0,4.37-1.75,8.77-7.61,8.77-5.6,0-7.42-4-7.42-8.49C267.45,6.9,267.77,4.14,269.57,2.21Zm1.73,11.61a4.49,4.49,0,0,0,3.64,1.5,4.54,4.54,0,0,0,3.64-1.5c1.34-1.64,1.48-4.24,1.48-5.35,0-3.73-1.23-6.56-5-6.56-4.17,0-5.24,3.35-5.24,6.72A8.29,8.29,0,0,0,271.3,13.82Z" fill="#969696"/><path d="M288.26,0.43h9.79V2.37h-7.47V7.49h7V9.4h-7v7.47h-2.32V0.43Z" fill="#969696"/><path d="M0.06,28H4.13V43.45h8v3.17H0.06V28Z" fill="#2a4a92"/><path d="M26.77,28l6.46,18.62h-4l-1.34-4H20.51l-1.39,4H15.31L22,28h4.74Zm0.1,11.59L24.3,31.66l-2.76,7.93h5.33Z" fill="#2a4a92"/><path d="M38.93,28.08L41.81,42l3.63-13.93h4.51L53.22,42l3-13.93H60L55.31,46.67H50.88L47.5,32.46,43.87,46.67H39.34L34.81,28.08h4.12Z" fill="#2a4a92"/><path d="M108.62,31.09h-5.54V28h15.09v3.09h-5.54V46.62h-4V31.09Z" fill="#0f7693"/><path d="M122.58,28H135v3h-8.47v4.43h7.93v3h-7.93v5h8.76v3.09H122.58V28Z" fill="#0f7693"/><path d="M150.88,34.08c-0.08-.64-0.31-3.27-3-3.27-3,0-4.2,3.09-4.2,6.93,0,1.11,0,6.39,3.89,6.39a3.27,3.27,0,0,0,3.35-3.53h4.2A6.37,6.37,0,0,1,153.43,45,7.3,7.3,0,0,1,148,47.06c-6.41,0-8.5-4.74-8.5-9.35,0-5.9,3.3-9.81,8.52-9.81,4.07,0,6.93,2.47,6.93,6.18h-4.07Z" fill="#0f7693"/><path d="M159.74,28h4v7.44h7V28h4V46.62h-4V38.46h-7.08v8.16h-4V28Z" fill="#0f7693"/><path d="M180.68,28h5.77l7,14.65V28h3.71V46.62h-5.48l-7.21-15.45V46.62h-3.76V28Z" fill="#0f7693"/><path d="M211.1,27.62a8.63,8.63,0,0,1,6.54,2.52,10.7,10.7,0,0,1,2.37,7,11.44,11.44,0,0,1-2.34,7.29A8.86,8.86,0,0,1,211,47.09a9,9,0,0,1-6.59-2.55c-2-2.16-2.29-5.25-2.29-7C202.16,32.64,204.4,27.62,211.1,27.62Zm-3.37,15a3.83,3.83,0,0,0,3.37,1.49,3.78,3.78,0,0,0,3.48-1.73c0.62-.93,1.26-2.37,1.26-5.33a10.75,10.75,0,0,0-.46-3.32,4.3,4.3,0,0,0-4.25-3.3A4.23,4.23,0,0,0,207.7,32c-1.06,1.29-1.37,3.3-1.37,5.41A8.57,8.57,0,0,0,207.72,42.66Z" fill="#0f7693"/><path d="M225.11,28h4.07V43.45h8v3.17H225.11V28Z" fill="#0f7693"/><path d="M248.59,27.62a8.63,8.63,0,0,1,6.54,2.52,10.7,10.7,0,0,1,2.37,7,11.44,11.44,0,0,1-2.34,7.29,8.86,8.86,0,0,1-6.62,2.65,9,9,0,0,1-6.59-2.55c-2-2.16-2.29-5.25-2.29-7C239.66,32.64,241.9,27.62,248.59,27.62Zm-3.37,15a3.83,3.83,0,0,0,3.37,1.49,3.78,3.78,0,0,0,3.48-1.73c0.62-.93,1.26-2.37,1.26-5.33a10.75,10.75,0,0,0-.46-3.32,4.3,4.3,0,0,0-4.25-3.3A4.23,4.23,0,0,0,245.19,32c-1.06,1.29-1.37,3.3-1.37,5.41A8.57,8.57,0,0,0,245.22,42.66Z" fill="#0f7693"/><path d="M275.1,33.72a3.52,3.52,0,0,0-.52-1.88,3.56,3.56,0,0,0-3.12-1.44c-4.53,0-5.43,4.22-5.43,7.08a7.51,7.51,0,0,0,1.55,5c0.93,1,2.16,1.6,4.38,1.6a9,9,0,0,0,3-.36V39.8h-3.61V36.71H279V46a19.18,19.18,0,0,1-6.8,1c-4.25,0-6.44-1-7.91-2.47-2.09-2-2.47-5-2.47-7,0-6.59,4.12-10.12,9.76-10.12,2.39,0,4.87.67,6.33,2.34a5.67,5.67,0,0,1,1.34,3.89H275.1Z" fill="#0f7693"/><path d="M288.15,28.08L292,36.55l3.91-8.47H300l-6.28,11.77v6.77h-3.94V39.8l-6.28-11.72h4.66Z" fill="#0f7693"/><path d="M100.28,48.73a7.17,7.17,0,0,1-2.9.93A5.28,5.28,0,0,1,93.52,48c-1.36-1.3-3.06-3-3.06-3s2-2,2.89-9.46c0.16-1.25.69-1.72,1.13-1.75a0.77,0.77,0,0,1,.5.29V34H90v1h0.13s2.05-.72,2.12.56,0,6-2.31,9.19L77.18,31.85s-2.62-2.64-2.62-4.62,1.1-2.76,3.47-2.76A8.72,8.72,0,0,1,85.17,29h0.46l-1.15-3.58a10.29,10.29,0,0,0-5.87-2c-6.14,0-5.95,4.71-5.95,4.91,0,0-.25,2,1.89,4.82,0,0-7.06,1-7.06,8.21,0,2,1.16,9.4,11.42,9.4a14.27,14.27,0,0,0,9.73-3.56s3,3.56,6.57,3.56A7.44,7.44,0,0,0,100.46,49Zm-18.9.63c-7.51,0-11.75-6.25-11.75-10.07,0,0-.48-4.52,5.52-5.6,0,0,1.23,1.72,12.91,12.88A8.53,8.53,0,0,1,81.39,49.37Z" fill="#fc0"/></svg>